<?xml version="1.0"?>
<svg xmlns="http://www.w3.org/2000/svg" xmlns:xlink="http://www.w3.org/1999/xlink" xmlns:svgjs="http://svgjs.com/svgjs" version="1.1" width="512" height="512" x="0" y="0" viewBox="0 0 682.66826 682" style="enable-background:new 0 0 512 512" xml:space="preserve" class=""><g><path xmlns="http://www.w3.org/2000/svg" d="m586.367188 398.335938c.828124-3.328126.769531-6.898438-.300782-10.375v-.003907l-9.242187-30.070312c-7.472657-24.308594-23.136719-45.726563-44.105469-60.304688-.066406-.039062-.128906-.085937-.191406-.128906l-12.222656-8.054687c-14.238282-9.390626-33.230469.867187-33.230469 17.953124v13.324219c0 10.308594 1.824219 20.1875 5.296875 29.332031-14.015625 4.164063-25.40625 14.734376-30.523438 28.796876-25.003906 8.707031-47.355468 25.007812-63.351562 46.304687-16.960938 22.582031-26.1875 49.34375-26.835938 77.578125-26.601562 13.550781-53.195312 23.171875-79.347656 28.710938 20.878906-47.75 21.328125-102.320313-14.265625-140.28125 15.183594-9.480469 29.65625-19.371094 43.125-29.527344 19.34375-14.585938 37.386719-30.246094 53.625-46.542969 62.222656-62.253906 98.019531-131.429687 128.871094-198.050781 7.402343-15.984375 10.832031-26.65625 24.636719-33.90625 9.210937-4.84375 14.941406-14.359375 14.941406-24.867188v-39.125h18.722656v46.132813c0 8.625 3.824219 16.609375 10.464844 21.898437 6.105468 4.878906 10.484375 11.34375 13.007812 19.214844 20.726563 65.25 10.550782 134.128906-18.660156 196.023438-2.917969 6.136718 1.527344 13.382812 8.449219 13.382812 3.605469 0 6.929687-2.105469 8.464843-5.355469l.007813-.011719c9.714844-20.589843 17.289063-41.390624 22.507813-61.839843 13.027343-50.984375 11.265624-103.171875-2.933594-147.894531-3.59375-11.355469-10.234375-21.113282-19.210938-28.21875-2.109375-1.664063-3.371094-4.363282-3.371094-7.199219v-46.132813c0-10.34375-8.402343-18.761718-18.726562-18.761718h-18.722656c-10.328125.011718-18.71875 8.417968-18.726563 18.761718v39.125c0 3.464844-1.925781 6.695313-4.882812 8.230469-19.527344 10.1875-24.839844 25.136719-32.945313 42.613281-24.53125 52.992188-60.121094 127.710938-125.125 192.707032-28.082031 28.183593-60.28125 53.214843-98.277344 76.40625-16.269531-11.648438-36.035156-18.417969-57.777343-19.347657-12.175781-.445312-24.195313 1.261719-35.929688 5.085938 17.488281-34.574219 43.394531-58.480469 77.308594-71.253907 10.261719 10.289063 22.5-3.996093 14.054687-12.449218l-4.988281-5c-2.511719-2.515625-6.222656-3.390625-9.585937-2.273438-35.941406 12.007813-64.949219 35.347656-85.488282 68.382813-3.226562-24.589844-12.101562-49.140625-36.550781-64.652344l-31.496093-19.980469c-6.992188-4.4375-15.753907-4.046875-22.328126.988282-6.507812 4.984374-9.164062 13.257812-6.761718 21.078124l9.242187 30.074219c5.859375 19.066407 16.777344 36.335938 31.328125 49.941407-36.621094.214843-71.542968 18.519531-90.769531 53.207031-15.941406 29.121093-17.851563 64.597656-5.523437 102.605469 9.257812 28.453124 26.015624 55.648437 47.191406 76.578124 22.335937 22.074219 47.636718 34.972657 71.136718 36.320313 4.878907.332031 9.78125.242187 14.546876-.261719 8.277343-.878906 16.675781-.878906 24.945312-.003906 2.917969.3125 5.867188.460938 8.804688.460938 1.890624 0 3.777343-.0625 5.644531-.1875 23.726562-1.359376 49.128906-14.367188 71.523437-36.636719 11.335938-11.273438 21.386719-24.339844 29.695313-38.398438 30.039062-4.746093 60.628906-14.589843 91.175781-29.351562 8.484375 66.035156 64.941406 117.226562 133.109375 117.226562 74 0 134.203125-60.320312 134.203125-134.460937 0-42.589844-19.894531-82.167969-53.632812-107.535156zm-495.476563-95.027344-9.238281-30.066406c-.074219-.230469-.117188-.382813.226562-.652344.753906-.574219-1.546875-1.625 32.4375 19.9375 23.195313 14.714844 28.398438 40.769531 29.453125 71.734375l-16.089843-10.605469c-17.492188-12.195312-30.558594-30.070312-36.789063-50.347656zm190.035156 205.46875c-16.222656 49.871094-60.109375 97.605468-101.796875 99.992187-3.785156.253907-7.589844.1875-11.304687-.203125-4.796875-.507812-9.617188-.761718-14.445313-.761718-4.824218 0-9.652344.253906-14.441406.761718-3.703125.394532-7.507812.457032-11.40625.195313-19.058594-1.089844-40.070312-12.082031-59.160156-30.953125-19.089844-18.863282-34.195313-43.378906-42.535156-69.027344-10.691407-32.953125-9.261719-63.3125 4.113281-87.734375 14.574219-26.289063 40.828125-42.132813 71.980469-43.464844 14.414062-.527343 28.648437 2.675781 42.398437 9.503907l3.90625 2.574218c3.652344 2.414063 8.699219 2.054688 11.964844-1.433594 14.433593-7.613281 29.445312-11.1875 44.574219-10.644531 58.28125 2.488281 100.476562 56.21875 76.152343 131.195313zm224.871094-201.425782c0-2.179687 2.382813-3.488281 4.21875-2.28125 11.257813 7.421876 25.636719 15.421876 38.300781 35.390626.28125 2.59375 1.617188 5.039062 3.847656 6.640624 2.746094 5.207032 5.03125 10.660157 6.765626 16.304688l9.242187 30.074219c.066406.226562.117187.378906-.234375.648437-.460938.351563-.738281.171875-.941406.042969l-31.496094-19.984375c-32.046875-20.328125-29.703125-49.898438-29.703125-66.835938zm0 314.214844c-63.675781 0-115.476563-51.898437-115.476563-115.695312 0-46.636719 27.1875-87.644532 68.90625-105.917969.710938 6.742187 2.894532 13.296875 6.488282 19.25 1.757812 2.917969 4.847656 4.523437 8.023437 4.523437 1.648438 0 3.320313-.433593 4.832031-1.351562 4.425782-2.679688 5.847657-8.445312 3.171876-12.878906-3.835938-6.347656-4.988282-13.84375-3.253907-21.109375 2.269531-9.515625 9.152344-16.886719 17.945313-19.976563v26.15625c0 5.136719 3.953125 9.617188 9.078125 9.773438 5.300781.15625 9.648437-4.101563 9.648437-9.375v-12.578125c5.863282 5.058593 9.90625 7.390625 18.699219 12.972656-.066406 4.964844-1.429687 9.871094-4.003906 14.136719-2.675781 4.433594-1.257813 10.199218 3.167969 12.878906 1.515624.917969 3.183593 1.351562 4.835937 1.351562 3.167969 0 6.257813-1.609374 8.023437-4.523437 2.414063-4 4.199219-8.339844 5.320313-12.84375l5.773437 3.667969c3.242188 2.054687 6.863282 3.070312 10.472657 3.070312 2.03125 0 4.058593-.328125 6.015625-.972656 30.027344 21.773438 47.8125 56.410156 47.8125 93.75 0 63.792969-51.800782 115.691406-115.480469 115.691406zm0 0" fill="#ff6000" data-original="#000000" style="" class=""/><path xmlns="http://www.w3.org/2000/svg" d="m177.242188 264.574219c39.582031 0 71.785156-32.265625 71.785156-71.925781 0-39.65625-32.203125-71.917969-71.785156-71.917969-39.582032 0-71.78125 32.261719-71.78125 71.917969 0 39.660156 32.199218 71.925781 71.78125 71.925781zm0-125.082031c29.257812 0 53.058593 23.847656 53.058593 53.15625 0 29.3125-23.800781 53.160156-53.058593 53.160156-29.253907 0-53.058594-23.847656-53.058594-53.160156 0-29.308594 23.804687-53.15625 53.058594-53.15625zm0 0" fill="#ff6000" data-original="#000000" style="" class=""/><path xmlns="http://www.w3.org/2000/svg" d="m158.429688 186.777344c1.828124 1.828125 4.226562 2.746094 6.621093 2.746094s4.792969-.917969 6.621094-2.746094l2.742187-2.75 2.746094 2.75c1.824219 1.828125 4.222656 2.746094 6.617188 2.746094 2.394531 0 4.792968-.917969 6.621094-2.746094 3.652343-3.667969 3.652343-9.605469 0-13.269532l-2.742188-2.746093 2.742188-2.75c3.652343-3.664063 3.652343-9.605469 0-13.265625-3.65625-3.664063-9.582032-3.664063-13.238282 0l-2.746094 2.746094-2.742187-2.746094c-3.660156-3.664063-9.585937-3.664063-13.242187 0-3.652344 3.660156-3.652344 9.601562 0 13.265625l2.742187 2.75-2.742187 2.746093c-3.652344 3.664063-3.652344 9.605469 0 13.269532zm0 0" fill="#ff6000" data-original="#000000" style="" class=""/><path xmlns="http://www.w3.org/2000/svg" d="m347.921875 105.667969c15.636719-15.667969 19.785156-37.449219 12.734375-57.324219l2.753906-1.140625c4.777344-1.984375 7.046875-7.472656 5.066406-12.257813-1.980468-4.789062-7.457031-7.058593-12.234374-5.078124l-4.53125 1.878906c-.085938-.121094-.167969-.246094-.261719-.371094l3.476562-3.484375c3.65625-3.664063 3.65625-9.605469 0-13.265625-3.65625-3.664062-9.585937-3.664062-13.242187.003906l-3.488282 3.492188c-.121093-.09375-.242187-.175782-.359374-.269532l1.878906-4.546874c1.976562-4.785157-.289063-10.273438-5.066406-12.253907-4.773438-1.984375-10.253907.292969-12.234376 5.078125l-1.132812 2.742188c-20.003906-7.167969-41.589844-2.890625-57.21875 12.769531-21.859375 21.902344-44.941406 79.683594-20.304688 104.371094 24.785157 24.832031 82.5625 1.296875 104.164063-20.34375zm-93.011719-29.277344c4.519532-15.914063 13.515625-32.582031 22.394532-41.480469 15.878906-15.910156 38.972656-13.132812 54.726562 2.652344 16.625 16.65625 17.738281 39.71875 2.648438 54.839844-8.875 8.890625-25.515626 17.910156-41.398438 22.4375-16.671875 4.746094-30.234375 3.964844-36.28125-2.097656-6.046875-6.058594-6.828125-19.648438-2.089844-36.351563zm0 0" fill="#ff6000" data-original="#000000" style="" class=""/><path xmlns="http://www.w3.org/2000/svg" d="m305.496094 77.417969c3.652344-3.664063 3.652344-9.601563 0-13.269531-3.65625-3.660157-9.582032-3.660157-13.242188 0-3.65625 3.667968-3.65625 9.605468 0 13.269531 3.660156 3.664062 9.585938 3.664062 13.242188 0zm0 0" fill="#ff6000" data-original="#000000" style="" class=""/><path xmlns="http://www.w3.org/2000/svg" d="m279.011719 103.953125c3.660156-3.664063 3.660156-9.601563 0-13.269531-3.65625-3.664063-9.582031-3.664063-13.242188 0-3.65625 3.667968-3.65625 9.605468 0 13.269531 3.660157 3.664063 9.585938 3.664063 13.242188 0zm0 0" fill="#ff6000" data-original="#000000" style="" class=""/><path xmlns="http://www.w3.org/2000/svg" d="m279.011719 77.417969c3.660156-3.664063 3.660156-9.601563 0-13.269531-3.65625-3.660157-9.582031-3.660157-13.242188 0-3.65625 3.667968-3.65625 9.605468 0 13.269531 3.660157 3.664062 9.585938 3.664062 13.242188 0zm0 0" fill="#ff6000" data-original="#000000" style="" class=""/><path xmlns="http://www.w3.org/2000/svg" d="m305.496094 103.953125c3.652344-3.664063 3.652344-9.601563 0-13.269531-3.65625-3.664063-9.582032-3.664063-13.242188 0-3.65625 3.667968-3.65625 9.605468 0 13.269531 3.660156 3.664063 9.585938 3.664063 13.242188 0zm0 0" fill="#ff6000" data-original="#000000" style="" class=""/><path xmlns="http://www.w3.org/2000/svg" d="m331.976562 77.417969c3.65625-3.664063 3.65625-9.601563 0-13.269531-3.652343-3.660157-9.585937-3.660157-13.238281 0-3.65625 3.667968-3.65625 9.605468 0 13.269531 3.652344 3.664062 9.582031 3.664062 13.238281 0zm0 0" fill="#ff6000" data-original="#000000" style="" class=""/><path xmlns="http://www.w3.org/2000/svg" d="m305.496094 50.882812c3.652344-3.660156 3.652344-9.605468 0-13.265624-3.65625-3.664063-9.582032-3.664063-13.242188 0-3.65625 3.667968-3.65625 9.605468 0 13.265624 3.660156 3.667969 9.585938 3.667969 13.242188 0zm0 0" fill="#ff6000" data-original="#000000" style="" class=""/><path xmlns="http://www.w3.org/2000/svg" d="m347.71875 131.527344c-3.667969 2.199218-6.761719 5.195312-9.078125 8.703125-10.261719-5.117188-23.378906-3.855469-32.519531 5.300781-8.996094 9.019531-10.4375 22.132812-5.203125 32.582031-5.699219 3.730469-9.941407 9.476563-11.761719 16.292969-1.804688 6.753906-1.042969 13.761719 2.082031 19.941406-6.492187 4.25-10.980469 11.035156-12.332031 18.726563-2.570312 14.570312 6.695312 28.714843 21.089844 32.203125 11.964844 2.898437 23.753906-2.277344 30.113281-11.9375 8.199219 4.140625 18.371094 4.246094 27.027344-.957032 3.691406-2.222656 6.808593-5.25 9.132812-8.796874 10.21875 5.136718 23.332031 3.996093 32.523438-5.207032 8.949219-8.972656 10.445312-22.066406 5.214843-32.550781 6-3.90625 10.351563-10.035156 12.019532-17.34375 1.378906-6.03125.632812-12.164063-1.75-17.542969 4.699218-1.8125 7.15625-7.03125 5.492187-11.832031-1.699219-4.890625-7.035156-7.472656-11.925781-5.777344l-5.515625 1.925781 3.695313-3.707031c3.65625-3.660156 3.65625-9.601562 0-13.265625-3.65625-3.660156-9.585938-3.660156-13.242188 0l-3.695312 3.707032 1.917968-5.53125c1.699219-4.894532-.878906-10.242188-5.765625-11.945313-4.761719-1.65625-9.953125.773437-11.777343 5.433594-8.007813-3.519531-17.570313-3.320313-25.742188 1.578125zm23.492188 26.617187c-.1875.6875-.28125 1.375-.308594 2.058594l-3.402344 3.414063c-8.515625 8.53125 3.914062 22.605468 13.976562 12.527343 3.25-3.269531 6.753907-3.949219 10.175782-2.796875 8.667968 2.921875 8.40625 15.875-.910156 18.039063-9.230469 2.148437-12.316407 13.714843-5.40625 20.21875 1.835937 1.734375 2.914062 4.214843 2.953124 6.8125.128907 8.308593-10.277343 12.832031-16.238281 6.464843-6.425781-6.871093-18.019531-3.765624-20.144531 5.417969-1.652344 7.128907-10.722656 9.953125-15.988281 4.308594-6.445313-6.886719-18.007813-3.761719-20.15625 5.457031-1.085938 4.652344-5.941407 8.292969-11.363281 6.976563-7.878907-1.914063-9.921876-12.621094-2.777344-17.082031 3.964844-2.480469 7.359375-.992188 8.746094-.78125 11.535156 2.484374 22.828124-2.75 28.863281-12.4375.839843.449218 1.707031.859374 2.597656 1.226562 19.714844 8.128906 41.0625-8.785156 30.5-19.367188-3.65625-3.660156-9.585937-3.660156-13.242187 0-5.722657 5.738282-15.171876 1.792969-15.929688-5.523437-.648438-15.042969-19.191406-12.601563-18.777344-.808594.09375 7.867188 1.875 12.808594-3.046875 16.835938-2.277343 1.871093-5.304687 2.332031-7.308593 1.664062-2.210938 0-8.652344-4.496093-6.777344-11.511719.894531-3.355468 3.554687-5.933593 6.9375-6.730468 9.1875-2.148438 12.320312-13.746094 5.414062-20.203125-1.851562-1.730469-2.9375-4.210938-2.984375-6.8125-.140625-8.355469 10.398438-12.832031 16.230469-6.605469 6.425781 6.863281 17.980469 3.761719 20.128906-5.398438.570313-2.414062 2.15625-4.558593 4.355469-5.875 7.050781-4.226562 16.082031 2.265626 13.882813 10.511719zm0 0" fill="#ff6000" data-original="#000000" style="" class=""/><path xmlns="http://www.w3.org/2000/svg" d="m457.105469 443.457031c0 5.175781-4.199219 9.375-9.371094 9.375-5.183594 0-9.375-4.199219-9.375-9.375 0-5.179687 4.191406-9.375 9.375-9.375 5.171875 0 9.371094 4.195313 9.371094 9.375zm0 0" fill="#ff6000" data-original="#000000" style="" class=""/><path xmlns="http://www.w3.org/2000/svg" d="m482.105469 478.457031c0 5.183594-4.199219 9.375-9.375 9.375s-9.375-4.191406-9.375-9.375c0-5.175781 4.199219-9.375 9.375-9.375s9.375 4.199219 9.375 9.375zm0 0" fill="#ff6000" data-original="#000000" style="" class=""/><path xmlns="http://www.w3.org/2000/svg" d="m432.101562 505.957031c0 5.183594-4.191406 9.375-9.375 9.375-5.175781 0-9.375-4.191406-9.375-9.375 0-5.175781 4.199219-9.375 9.375-9.375 5.183594 0 9.375 4.199219 9.375 9.375zm0 0" fill="#ff6000" data-original="#000000" style="" class=""/></g></svg>
